<svg width="1024" height="1024" viewBox="0 0 1024 1024" fill="none" xmlns="http://www.w3.org/2000/svg">
<path d="M206.037 574.252C200.064 574.252 193.706 574.445 186.963 574.83C180.412 575.215 173.765 575.793 167.022 576.564C160.279 577.335 153.632 578.394 147.081 579.743C140.723 580.899 134.943 582.344 129.741 584.078C130.897 575.408 132.246 565.775 133.787 555.178C135.328 544.581 137.062 533.599 138.989 522.232C141.108 510.865 143.131 499.401 145.058 487.841C147.177 476.281 149.297 465.203 151.416 454.606C156.233 429.367 161.338 403.646 166.733 377.443L217.308 370.796C212.106 393.145 207.097 414.917 202.28 436.11C200.161 445.165 198.041 454.606 195.922 464.432C193.803 474.065 191.78 483.506 189.853 492.754C187.926 502.002 186.192 510.961 184.651 519.631C183.11 528.301 181.857 536.008 180.894 542.751C185.711 542.366 190.816 542.173 196.211 542.173C201.798 541.98 206.711 541.884 210.95 541.884C211.143 545.545 211.432 549.205 211.817 552.866C212.202 556.334 212.588 559.513 212.973 562.403C213.551 565.293 213.936 567.894 214.129 570.206C214.514 572.325 214.803 573.77 214.996 574.541C213.455 574.541 211.913 574.541 210.372 574.541C209.023 574.348 207.578 574.252 206.037 574.252ZM282.552 445.069C282.745 445.069 281.685 445.069 279.373 445.069C277.061 445.069 274.171 445.262 270.703 445.647C267.235 445.84 263.382 446.032 259.143 446.225C254.904 446.418 250.955 446.707 247.294 447.092C243.826 447.285 240.84 447.477 238.335 447.67C235.83 447.67 234.578 447.67 234.578 447.67C235.349 445.358 236.312 442.275 237.468 438.422C238.817 434.376 240.165 430.041 241.514 425.417C243.055 420.6 244.597 415.591 246.138 410.389C247.872 405.187 249.51 400.081 251.051 395.072C254.519 383.127 258.372 370.411 262.611 356.924L286.02 357.502L312.03 356.924C307.406 370.218 303.264 382.741 299.603 394.494C297.869 399.311 296.135 404.32 294.401 409.522C292.667 414.531 291.029 419.348 289.488 423.972C288.139 428.403 286.791 432.449 285.442 436.11C284.286 439.771 283.323 442.757 282.552 445.069ZM274.214 583.789L312.073 378.31L403.397 370.507C402.048 374.746 400.892 379.081 399.929 383.512C398.966 387.173 398.002 391.026 397.039 395.072C396.268 398.925 395.594 402.393 395.016 405.476C393.089 405.669 390.296 405.861 386.635 406.054C383.167 406.054 379.41 406.15 375.364 406.343C371.318 406.343 367.176 406.343 362.937 406.343C358.891 406.343 355.327 406.343 352.244 406.343L342.129 458.074C348.102 457.689 353.689 457.4 358.891 457.207C363.13 457.014 367.465 456.918 371.896 456.918C376.327 456.918 379.603 456.822 381.722 456.629C380.951 462.024 380.181 467.322 379.41 472.524C378.832 477.726 378.061 483.024 377.098 488.419C375.171 488.612 371.992 488.804 367.561 488.997C363.322 488.997 358.987 489.093 354.556 489.286C349.547 489.479 344.056 489.671 338.083 489.864L328.257 543.04L370.451 536.393L367.561 569.339L274.214 583.789ZM397.906 337.85C386.539 342.474 374.304 347.194 361.203 352.011C348.102 356.635 335.867 361.066 324.5 365.305C324.307 363.186 324.211 361.259 324.211 359.525C324.211 357.791 324.211 356.057 324.211 354.323C324.211 351.24 324.211 348.158 324.211 345.075C324.404 341.8 324.5 338.428 324.5 334.96C337.601 321.666 349.932 309.817 361.492 299.413C373.052 289.009 383.841 278.316 393.86 267.334C394.823 280.243 395.305 292.284 395.305 303.459C395.498 314.634 396.365 326.097 397.906 337.85ZM369.532 583.789C375.312 557.779 380.803 532.347 386.005 507.493C388.124 497.089 390.34 486.107 392.652 474.547C394.964 462.987 397.18 451.62 399.299 440.445C401.418 429.27 403.441 418.481 405.368 408.077C407.295 397.673 408.932 388.136 410.281 379.466C415.868 377.732 421.359 376.287 426.754 375.131C432.149 373.782 437.64 372.626 443.227 371.663C449.007 370.7 454.402 370.218 459.411 370.218C468.081 370.218 475.306 371.663 481.086 374.553C487.059 377.443 491.875 381.393 495.536 386.402C499.197 391.219 501.798 396.902 503.339 403.453C504.88 410.004 505.651 417.036 505.651 424.55C505.651 435.339 503.628 445.743 499.582 455.762C495.729 465.781 490.43 474.74 483.687 482.639C477.136 490.346 469.526 496.511 460.856 501.135C452.379 505.759 443.516 508.071 434.268 508.071H431.089C429.548 514.622 428.103 521.75 426.754 529.457C425.405 537.164 424.249 544.292 423.286 550.843C421.937 558.55 420.685 566.256 419.529 573.963L369.532 583.789ZM450.163 405.187C448.044 417.903 445.924 429.945 443.805 441.312C441.686 452.679 439.374 464.817 436.869 477.726C439.952 476.955 443.131 475.221 446.406 472.524C449.874 469.634 453.053 465.973 455.943 461.542C458.833 456.918 461.145 451.62 462.879 445.647C464.613 439.674 465.48 433.413 465.48 426.862C465.48 419.733 463.842 414.339 460.567 410.678C457.484 407.017 454.016 405.187 450.163 405.187ZM529.033 577.72C527.299 577.72 523.831 578.009 518.629 578.587C513.619 578.972 508.417 579.55 503.023 580.321C497.628 580.899 492.715 581.477 488.284 582.055C484.045 582.633 481.733 583.018 481.348 583.211C483.274 574.926 485.201 565.775 487.128 555.756C489.247 545.545 491.366 534.948 493.486 523.966C495.605 512.791 497.628 501.52 499.555 490.153C501.481 478.786 503.312 467.804 505.046 457.207C509.092 432.546 513.138 407.21 517.184 381.2L562.268 373.975C557.837 399.792 553.502 425.128 549.263 449.982C547.529 460.579 545.699 471.561 543.772 482.928C542.038 494.295 540.208 505.566 538.281 516.741C536.547 527.916 534.909 538.801 533.368 549.398C531.826 559.802 530.381 569.243 529.033 577.72ZM644.676 577.72C639.859 578.491 634.561 579.358 628.781 580.321C623.001 581.284 617.799 582.151 613.175 582.922C613.945 576.564 614.716 570.302 615.487 564.137C616.065 558.742 616.546 553.348 616.932 547.953C617.51 542.558 617.991 537.934 618.377 534.081H593.234L581.674 575.697C577.435 576.275 572.426 576.949 566.646 577.72C560.866 578.298 555.471 578.876 550.462 579.454C544.296 580.225 538.227 580.995 532.255 581.766C539.961 556.141 547.572 530.902 555.086 506.048C558.168 495.644 561.347 484.758 564.623 473.391C568.091 462.024 571.462 450.753 574.738 439.578C578.206 428.211 581.481 417.325 584.564 406.921C587.646 396.517 590.344 386.98 592.656 378.31C605.757 377.347 619.051 376.191 632.538 374.842C646.217 373.493 659.511 371.663 672.42 369.351C671.842 375.516 671.167 383.223 670.397 392.471C669.819 401.526 669.241 411.449 668.663 422.238C668.085 433.027 667.507 444.298 666.929 456.051C666.351 467.804 665.773 479.364 665.195 490.731C664.231 517.319 663.172 545.545 662.016 575.408C656.236 576.371 650.456 577.142 644.676 577.72ZM600.17 505.181C600.94 505.181 602.289 505.181 604.216 505.181C606.335 504.988 608.454 504.892 610.574 504.892C612.886 504.699 615.005 504.603 616.932 504.603C618.858 504.41 620.207 504.218 620.978 504.025C620.978 502.869 621.074 500.942 621.267 498.245C621.652 495.355 621.941 492.176 622.134 488.708C622.519 485.047 622.904 481.098 623.29 476.859C623.675 472.62 624.06 468.478 624.446 464.432C625.216 454.606 626.18 444.009 627.336 432.642L629.07 407.499L624.735 407.788L618.088 432.642L600.17 505.181ZM664.795 584.945C670.575 557.201 676.066 530.324 681.268 504.314C683.195 493.139 685.218 481.579 687.337 469.634C689.649 457.689 691.768 445.936 693.695 434.376C695.622 422.623 697.356 411.449 698.897 400.852C700.438 390.063 701.594 380.333 702.365 371.663C704.87 371.856 706.989 371.952 708.723 371.952C710.457 371.952 712.48 371.952 714.792 371.952C717.489 371.952 720.765 371.952 724.618 371.952C728.471 371.759 732.325 371.567 736.178 371.374C740.031 371.181 744.174 370.989 748.605 370.796C751.302 384.283 753.711 397.288 755.83 409.811C757.949 420.793 760.069 432.064 762.188 443.624C764.5 455.184 766.523 465.01 768.257 473.102C769.028 469.249 769.895 464.817 770.858 459.808C771.821 454.606 772.881 449.211 774.037 443.624C775.193 438.037 776.253 432.449 777.216 426.862C778.372 421.082 779.528 415.398 780.684 409.811C783.381 397.288 786.175 384.379 789.065 371.085L824.323 366.75C817.772 396.228 811.992 424.165 806.983 450.56C804.671 461.927 802.359 473.487 800.047 485.24C797.928 496.8 795.905 507.975 793.978 518.764C792.051 529.361 790.414 539.283 789.065 548.531C787.716 557.586 786.657 565.197 785.886 571.362C785.308 571.362 782.996 571.844 778.95 572.807C775.097 573.578 770.569 574.541 765.367 575.697C760.358 576.853 755.252 578.009 750.05 579.165C745.041 580.321 741.284 581.381 738.779 582.344C737.623 566.931 736.371 552.288 735.022 538.416C734.444 532.443 733.77 526.374 732.999 520.209C732.421 513.851 731.747 507.782 730.976 502.002C730.205 496.222 729.435 490.827 728.664 485.818C727.893 480.809 727.123 476.474 726.352 472.813C725.774 476.474 725.003 480.712 724.04 485.529C723.077 490.346 722.113 495.451 721.15 500.846C720.187 506.241 719.223 511.924 718.26 517.897C717.297 523.677 716.237 529.264 715.081 534.659C712.576 547.568 709.879 561.054 706.989 575.119L664.795 584.945ZM820.031 583.789C824.462 562.596 828.701 541.691 832.747 521.076C834.481 512.406 836.215 503.351 837.949 493.91C839.683 484.469 841.321 475.221 842.862 466.166C844.596 456.918 846.041 448.055 847.197 439.578C848.546 430.908 849.702 423.009 850.665 415.88C846.234 415.302 841.706 415.109 837.082 415.302C832.651 415.495 828.219 414.917 823.788 413.568C823.981 410.485 824.077 406.921 824.077 402.875C824.077 398.829 824.173 394.783 824.366 390.737C824.559 386.306 824.751 381.585 824.944 376.576C829.953 376.961 834.963 377.25 839.972 377.443C844.981 377.636 849.991 377.732 855 377.732C864.826 377.732 874.267 377.539 883.322 377.154C892.57 376.576 901.047 375.998 908.754 375.42C916.653 374.649 924.36 373.782 931.874 372.819L928.695 388.425C927.732 392.856 926.768 397.384 925.805 402.008C925.034 406.632 924.264 410.582 923.493 413.857C919.254 415.013 914.919 415.88 910.488 416.458C906.249 416.843 902.011 417.421 897.772 418.192C896.423 424.743 894.978 432.064 893.437 440.156C891.896 448.055 890.354 456.34 888.813 465.01C887.464 473.487 886.116 482.157 884.767 491.02C883.418 499.883 882.07 508.36 880.721 516.452C877.638 535.526 874.748 555.274 872.051 575.697L820.031 583.789Z" fill="white"/>
</svg>
