<svg id="Calque_1" data-name="Calque 1" xmlns="http://www.w3.org/2000/svg" viewBox="0 0 1024 1024"><defs><style>.cls-1{fill:#fff;}</style></defs><path class="cls-1" d="M846.5,512c0,184.74-149.76,334.5-334.5,334.5S177.5,696.74,177.5,512,327.26,177.5,512,177.5,846.5,327.26,846.5,512ZM511.82,247c-146.84,0-265.88,119-265.88,265.87S365,778.79,511.82,778.79s265.88-119,265.88-265.88S658.66,247,511.82,247Z"/><circle class="cls-1" cx="510.99" cy="512" r="67.32"/><rect class="cls-1" x="504.6" y="611.96" width="278.8" height="67.52" transform="translate(645.21 -266.25) rotate(45)"/><circle class="cls-1" cx="513.81" cy="512.01" r="67.31"/><path class="cls-1" d="M710.8,512c0,109.79-89,198.8-198.79,198.8s-198.8-89-198.8-198.8,89-198.8,198.8-198.8S710.8,402.21,710.8,512ZM512.58,378.36A134.19,134.19,0,1,0,646.77,512.54,134.18,134.18,0,0,0,512.58,378.36Z"/></svg>