<svg
  width="1471"
  height="501"
  viewBox="0 0 1471 501"
  fill="none"
  xmlns="http://www.w3.org/2000/svg"
>
<path
    d="M53.6602 378.93C37.7096 378.93 25.0957 374.21 15.8184 364.77C5.40169 354.353 0.193359 339.135 0.193359 319.115C0.193359 309.675 1.49544 298.77 4.09961 286.4L57.5664 35.9121L131.541 25.9023L74.168 295.922C72.8659 300.154 72.2148 305.525 72.2148 312.035C72.2148 318.871 73.7611 323.673 76.8535 326.439C80.1087 329.206 85.3171 330.59 92.4785 330.59C97.3613 330.59 102.081 329.532 106.639 327.416C111.359 325.137 115.672 322.045 119.578 318.139C127.553 310.163 133.576 299.584 137.645 286.4H158.641C149.689 311.628 138.458 331.729 124.949 346.703C113.556 358.91 100.698 367.699 86.375 373.07C75.9583 376.977 65.0534 378.93 53.6602 378.93ZM193.797 111.596C200.958 104.271 206.492 97.4355 210.398 91.0879C214.467 84.7402 216.502 79.5319 216.502 75.4629C216.502 73.0215 215.77 70.9056 214.305 69.1152C212.84 67.3249 211.049 65.6159 208.934 63.9883C206.98 62.1979 205.516 60.8958 204.539 60.082C200.796 56.9896 197.785 53.4902 195.506 49.584C193.39 45.6777 192.332 40.7949 192.332 34.9355C192.332 30.0527 193.146 25.4141 194.773 21.0195C196.564 16.625 198.924 12.8815 201.854 9.78906C208.038 3.27865 216.014 0.0234375 225.779 0.0234375C230.662 0.0234375 235.301 0.91862 239.695 2.70898C244.09 4.33659 247.915 6.69661 251.17 9.78906C254.262 12.8815 256.622 16.625 258.25 21.0195C260.04 25.2513 260.936 29.89 260.936 34.9355C260.936 41.2832 259.552 48.1191 256.785 55.4434C254.018 62.7676 250.112 70.0918 245.066 77.416C233.673 93.5293 219.106 107.364 201.365 118.92L193.797 111.596ZM312.449 378.93C287.872 378.93 268.911 372.745 255.564 360.375C241.404 347.191 234.324 326.928 234.324 299.584C234.324 289.33 235.382 277.937 237.498 265.404C239.451 252.872 242.462 240.339 246.531 227.807C251.089 213.809 256.867 200.544 263.865 188.012C271.027 175.479 279.327 164.411 288.768 154.809C310.577 132.673 337.433 121.605 369.334 121.605C389.679 121.605 404.49 126.488 413.768 136.254C420.929 143.904 424.51 154.971 424.51 169.457C424.51 183.617 421.417 196.964 415.232 209.496C409.048 221.866 400.503 232.852 389.598 242.455C378.693 251.895 366.323 259.464 352.488 265.16C338.654 270.694 324.331 273.949 309.52 274.926C308.706 283.389 308.299 290.062 308.299 294.945C308.299 311.221 311.391 322.452 317.576 328.637C322.947 334.171 331.899 336.938 344.432 336.938C362.498 336.938 379.018 332.055 393.992 322.289C400.34 318.22 406.443 313.419 412.303 307.885C418.162 302.188 424.998 295.027 432.811 286.4H449.9C434.113 313.093 415.965 334.333 395.457 350.121C370.229 369.327 342.56 378.93 312.449 378.93ZM313.426 251C322.703 250.349 331.736 247.663 340.525 242.943C349.314 238.223 357.127 232.038 363.963 224.389C370.799 216.576 376.17 207.868 380.076 198.266C383.982 188.5 385.936 178.572 385.936 168.48C385.936 161.807 384.959 156.762 383.006 153.344C381.215 149.763 378.042 147.973 373.484 147.973C367.462 147.973 361.359 150.902 355.174 156.762C349.152 162.621 343.292 170.678 337.596 180.932C332.387 190.535 327.667 201.439 323.436 213.646C319.204 225.854 315.867 238.305 313.426 251ZM470.896 107.445H542.918L534.861 145.043C551.788 130.72 571.238 123.559 593.211 123.559C611.928 123.559 626.414 129.255 636.668 140.648C648.387 153.995 654.246 174.584 654.246 202.416C654.246 229.271 650.828 254.499 643.992 278.1C635.366 308.21 622.833 331.566 606.395 348.168C586.212 368.676 561.147 378.93 531.199 378.93C519.643 378.93 510.122 377.139 502.635 373.559C496.938 370.954 492.299 366.804 488.719 361.107L462.84 482.934L387.4 501L470.896 107.445ZM515.818 335.473C531.932 335.473 545.766 327.253 557.322 310.814C566.437 297.956 573.761 279.89 579.295 256.615C583.689 237.898 585.887 219.343 585.887 200.951C585.887 184.512 582.876 172.794 576.854 165.795C572.947 161.563 567.576 159.447 560.74 159.447C554.718 159.447 548.615 161.563 542.43 165.795C536.245 170.027 530.874 176.13 526.316 184.105L496.775 323.998C497.915 327.253 500.031 330.02 503.123 332.299C506.378 334.415 510.61 335.473 515.818 335.473ZM750.193 98.9004C744.822 98.9004 739.695 97.9238 734.812 95.9707C729.93 93.8548 725.698 91.0065 722.117 87.4258C718.536 84.0078 715.688 79.8574 713.572 74.9746C711.619 70.0918 710.643 64.9648 710.643 59.5938C710.643 54.2227 711.619 49.0957 713.572 44.2129C715.688 39.3301 718.536 35.0169 722.117 31.2734C725.698 27.5299 729.93 24.6816 734.812 22.7285C739.695 20.6126 744.822 19.5547 750.193 19.5547C755.564 19.5547 760.691 20.6126 765.574 22.7285C770.457 24.6816 774.77 27.5299 778.514 31.2734C782.257 35.0169 785.105 39.3301 787.059 44.2129C789.174 49.0957 790.232 54.2227 790.232 59.5938C790.232 64.9648 789.174 70.0918 787.059 74.9746C785.105 79.8574 782.257 84.0078 778.514 87.4258C774.77 91.0065 770.457 93.8548 765.574 95.9707C760.691 97.9238 755.564 98.9004 750.193 98.9004ZM716.258 378.93C700.307 378.93 687.693 374.21 678.416 364.77C667.999 354.353 662.791 339.135 662.791 319.115C662.791 309.675 664.093 298.77 666.697 286.4L700.633 126H772.654L736.766 295.922C735.464 300.154 734.812 305.525 734.812 312.035C734.812 318.871 736.359 323.673 739.451 326.439C742.706 329.206 747.915 330.59 755.076 330.59C759.959 330.59 764.679 329.532 769.236 327.416C773.956 325.137 778.27 322.045 782.176 318.139C790.151 310.163 796.173 299.584 800.242 286.4H821.238C812.286 311.628 801.056 331.729 787.547 346.703C776.154 358.91 763.296 367.699 748.973 373.07C738.556 376.977 727.651 378.93 716.258 378.93ZM860.545 378.93C841.502 378.93 826.121 372.989 814.402 361.107C800.73 347.11 793.895 326.277 793.895 298.607C793.895 286.889 795.115 274.519 797.557 261.498C799.835 248.477 803.253 235.619 807.811 222.924C818.227 194.278 832.469 171.166 850.535 153.588C871.368 133.568 895.376 123.559 922.557 123.559C936.066 123.559 946.157 125.919 952.83 130.639C959.666 135.196 963.084 141.299 963.084 148.949V152.611L968.455 126H1040.48L1004.59 295.922C1003.12 300.805 1002.39 306.176 1002.39 312.035C1002.39 326.358 1009.23 333.52 1022.9 333.52C1032.01 333.52 1040.31 328.881 1047.8 319.604C1054.15 311.791 1059.36 300.723 1063.43 286.4H1084.42C1075.47 311.791 1064.65 331.892 1051.95 346.703C1041.21 358.91 1029.08 367.699 1015.57 373.07C1005.65 376.977 995.148 378.93 984.08 378.93C969.92 378.93 958.608 375.105 950.145 367.455C941.844 359.643 936.798 348.168 935.008 333.031C925.568 346.378 915.639 356.794 905.223 364.281C891.876 374.047 876.984 378.93 860.545 378.93ZM893.016 330.59C896.759 330.59 900.665 329.613 904.734 327.66C908.966 325.707 913.035 322.94 916.941 319.359C925.73 310.896 931.59 299.91 934.52 286.4L958.445 173.607C958.445 171.98 958.038 170.108 957.225 167.992C956.574 165.714 955.597 163.598 954.295 161.645C950.389 156.924 944.936 154.564 937.938 154.564C931.264 154.564 924.754 156.762 918.406 161.156C912.221 165.551 906.362 171.654 900.828 179.467C891.062 193.627 883.006 212.1 876.658 234.887C873.729 244.978 871.531 254.988 870.066 264.916C868.602 274.682 867.869 283.552 867.869 291.527C867.869 308.129 870.962 319.359 877.146 325.219C879.262 327.497 881.622 328.962 884.227 329.613C886.831 330.264 889.76 330.59 893.016 330.59ZM1244.09 378.93C1223.42 378.93 1208.12 373.07 1198.19 361.352C1189.57 351.26 1185.25 338.321 1185.25 322.533C1185.25 315.046 1186.15 306.339 1187.94 296.41C1189.89 286.482 1192.74 273.705 1196.48 258.08C1200.23 242.13 1202.99 229.434 1204.78 219.994C1206.74 210.391 1207.71 202.09 1207.71 195.092C1207.71 178.002 1201.69 169.457 1189.65 169.457C1181.18 169.457 1173.37 173.933 1166.21 182.885C1160.19 190.535 1154.98 201.439 1150.58 215.6L1116.65 376H1044.63L1097.61 126H1169.63L1164.26 151.879C1174.02 140.974 1184.52 133.324 1195.75 128.93C1204.05 125.674 1213 124.047 1222.61 124.047C1239.53 124.047 1252.88 128.441 1262.64 137.23C1273.06 146.833 1278.27 161.238 1278.27 180.443C1278.27 191.999 1276.15 207.055 1271.92 225.609C1270.78 230.98 1268.91 239.037 1266.31 249.779C1261.59 267.846 1258.17 282.25 1256.05 292.992C1254.75 299.828 1254.1 305.362 1254.1 309.594C1254.1 316.267 1255.56 321.475 1258.49 325.219C1261.59 328.799 1266.79 330.59 1274.12 330.59C1284.05 330.59 1292.43 326.521 1299.27 318.383C1304.47 312.198 1310.09 301.537 1316.11 286.4H1337.11C1324.74 323.021 1309.11 348.656 1290.23 363.305C1276.89 373.721 1261.51 378.93 1244.09 378.93ZM1365.67 378.93C1349.72 378.93 1337.11 374.21 1327.83 364.77C1317.41 354.353 1312.21 339.135 1312.21 319.115C1312.21 309.675 1313.51 298.77 1316.11 286.4L1346.14 146.02H1329.54L1333.69 126H1350.05L1365.18 56.9082L1439.16 46.8984L1422.07 126H1452.1L1448.19 146.02H1418.16L1386.18 295.922C1384.88 300.154 1384.23 305.525 1384.23 312.035C1384.23 318.871 1385.77 323.673 1388.87 326.439C1392.12 329.206 1397.33 330.59 1404.49 330.59C1409.37 330.59 1414.09 329.532 1418.65 327.416C1423.37 325.137 1427.68 322.045 1431.59 318.139C1439.57 310.163 1445.59 299.584 1449.66 286.4H1470.65C1461.7 311.628 1450.47 331.729 1436.96 346.703C1425.57 358.91 1412.71 367.699 1398.39 373.07C1387.97 376.977 1377.07 378.93 1365.67 378.93Z"
    fill="#df0000"
  />
</svg>
