<svg width="1337" height="566" viewBox="0 0 1337 566" fill="none" xmlns="http://www.w3.org/2000/svg">
<path d="M197.671 471.792C188.495 471.792 178.727 472.088 168.367 472.68C158.303 473.272 148.091 474.16 137.731 475.344C127.371 476.528 117.159 478.156 107.095 480.228C97.327 482.004 88.447 484.224 80.455 486.888C82.231 473.568 84.303 458.768 86.671 442.488C89.039 426.208 91.703 409.336 94.663 391.872C97.919 374.408 101.027 356.796 103.987 339.036C107.243 321.276 110.499 304.256 113.755 287.976C121.155 249.2 128.999 209.684 137.287 169.428L214.987 159.216C206.995 193.552 199.299 227 191.899 259.56C188.643 273.472 185.387 287.976 182.131 303.072C178.875 317.872 175.767 332.376 172.807 346.584C169.847 360.792 167.183 374.556 164.815 387.876C162.447 401.196 160.523 413.036 159.043 423.396C166.443 422.804 174.287 422.508 182.575 422.508C191.159 422.212 198.707 422.064 205.219 422.064C205.515 427.688 205.959 433.312 206.551 438.936C207.143 444.264 207.735 449.148 208.327 453.588C209.215 458.028 209.807 462.024 210.103 465.576C210.695 468.832 211.139 471.052 211.435 472.236C209.067 472.236 206.699 472.236 204.331 472.236C202.259 471.94 200.039 471.792 197.671 471.792ZM315.223 273.324C315.519 273.324 313.891 273.324 310.339 273.324C306.787 273.324 302.347 273.62 297.019 274.212C291.691 274.508 285.771 274.804 279.259 275.1C272.747 275.396 266.679 275.84 261.055 276.432C255.727 276.728 251.139 277.024 247.291 277.32C243.443 277.32 241.519 277.32 241.519 277.32C242.703 273.768 244.183 269.032 245.959 263.112C248.031 256.896 250.103 250.236 252.175 243.132C254.543 235.732 256.911 228.036 259.279 220.044C261.943 212.052 264.459 204.208 266.827 196.512C272.155 178.16 278.075 158.624 284.587 137.904L320.551 138.792L360.511 137.904C353.407 158.328 347.043 177.568 341.419 195.624C338.755 203.024 336.091 210.72 333.427 218.712C330.763 226.408 328.247 233.808 325.879 240.912C323.807 247.72 321.735 253.936 319.663 259.56C317.887 265.184 316.407 269.772 315.223 273.324ZM302.413 486.444L360.577 170.76L500.881 158.772C498.809 165.284 497.033 171.944 495.553 178.752C494.073 184.376 492.593 190.296 491.113 196.512C489.929 202.432 488.893 207.76 488.005 212.496C485.045 212.792 480.753 213.088 475.129 213.384C469.801 213.384 464.029 213.532 457.813 213.828C451.597 213.828 445.233 213.828 438.721 213.828C432.505 213.828 427.029 213.828 422.293 213.828L406.753 293.304C415.929 292.712 424.513 292.268 432.505 291.972C439.017 291.676 445.677 291.528 452.485 291.528C459.293 291.528 464.325 291.38 467.581 291.084C466.397 299.372 465.213 307.512 464.029 315.504C463.141 323.496 461.957 331.636 460.477 339.924C457.517 340.22 452.633 340.516 445.825 340.812C439.313 340.812 432.653 340.96 425.845 341.256C418.149 341.552 409.713 341.848 400.537 342.144L385.441 423.84L450.265 413.628L445.825 464.244L302.413 486.444ZM492.445 108.6C474.981 115.704 456.185 122.956 436.057 130.356C415.929 137.46 397.133 144.268 379.669 150.78C379.373 147.524 379.225 144.564 379.225 141.9C379.225 139.236 379.225 136.572 379.225 133.908C379.225 129.172 379.225 124.436 379.225 119.7C379.521 114.668 379.669 109.488 379.669 104.16C399.797 83.736 418.741 65.532 436.501 49.548C454.261 33.564 470.837 17.136 486.229 0.263955C487.709 20.096 488.449 38.596 488.449 55.764C488.745 72.932 490.077 90.544 492.445 108.6ZM448.854 486.444C457.734 446.484 466.17 407.412 474.162 369.228C477.418 353.244 480.822 336.372 484.374 318.612C487.926 300.852 491.33 283.388 494.586 266.22C497.842 249.052 500.95 232.476 503.91 216.492C506.87 200.508 509.386 185.856 511.458 172.536C520.042 169.872 528.478 167.652 536.766 165.876C545.054 163.804 553.49 162.028 562.074 160.548C570.954 159.068 579.242 158.328 586.938 158.328C600.258 158.328 611.358 160.548 620.238 164.988C629.414 169.428 636.814 175.496 642.438 183.192C648.062 190.592 652.058 199.324 654.426 209.388C656.794 219.452 657.978 230.256 657.978 241.8C657.978 258.376 654.87 274.36 648.654 289.752C642.734 305.144 634.594 318.908 624.234 331.044C614.17 342.884 602.478 352.356 589.158 359.46C576.134 366.564 562.518 370.116 548.31 370.116H543.426C541.058 380.18 538.838 391.132 536.766 402.972C534.694 414.812 532.918 425.764 531.438 435.828C529.366 447.668 527.442 459.508 525.666 471.348L448.854 486.444ZM572.73 212.052C569.474 231.588 566.218 250.088 562.962 267.552C559.706 285.016 556.154 303.664 552.306 323.496C557.042 322.312 561.926 319.648 566.958 315.504C572.286 311.064 577.17 305.44 581.61 298.632C586.05 291.528 589.602 283.388 592.266 274.212C594.93 265.036 596.262 255.416 596.262 245.352C596.262 234.4 593.746 226.112 588.714 220.488C583.978 214.864 578.65 212.052 572.73 212.052ZM693.9 477.12C691.236 477.12 685.908 477.564 677.916 478.452C670.22 479.044 662.228 479.932 653.94 481.116C645.652 482.004 638.104 482.892 631.296 483.78C624.784 484.668 621.232 485.26 620.64 485.556C623.6 472.828 626.56 458.768 629.52 443.376C632.776 427.688 636.032 411.408 639.288 394.536C642.544 377.368 645.652 360.052 648.612 342.588C651.572 325.124 654.384 308.252 657.048 291.972C663.264 254.084 669.48 215.16 675.696 175.2L744.96 164.1C738.152 203.764 731.492 242.688 724.98 280.872C722.316 297.152 719.504 314.024 716.544 331.488C713.88 348.952 711.068 366.268 708.108 383.436C705.444 400.604 702.928 417.328 700.56 433.608C698.192 449.592 695.972 464.096 693.9 477.12ZM871.566 477.12C864.166 478.304 856.026 479.636 847.146 481.116C838.266 482.596 830.274 483.928 823.17 485.112C824.354 475.344 825.538 465.724 826.722 456.252C827.61 447.964 828.35 439.676 828.942 431.388C829.83 423.1 830.57 415.996 831.162 410.076H792.534L774.774 474.012C768.262 474.9 760.566 475.936 751.686 477.12C742.806 478.008 734.518 478.896 726.822 479.784C717.35 480.968 708.026 482.152 698.85 483.336C710.69 443.968 722.382 405.192 733.926 367.008C738.662 351.024 743.546 334.3 748.578 316.836C753.906 299.372 759.086 282.056 764.118 264.888C769.446 247.424 774.478 230.7 779.214 214.716C783.95 198.732 788.094 184.08 791.646 170.76C811.774 169.28 832.198 167.504 852.918 165.432C873.934 163.36 894.358 160.548 914.19 156.996C913.302 166.468 912.266 178.308 911.082 192.516C910.194 206.428 909.306 221.672 908.418 238.248C907.53 254.824 906.642 272.14 905.754 290.196C904.866 308.252 903.978 326.012 903.09 343.476C901.61 384.324 899.982 427.688 898.206 473.568C889.326 475.048 880.446 476.232 871.566 477.12ZM803.19 365.676C804.374 365.676 806.446 365.676 809.406 365.676C812.662 365.38 815.918 365.232 819.174 365.232C822.726 364.936 825.982 364.788 828.942 364.788C831.902 364.492 833.974 364.196 835.158 363.9C835.158 362.124 835.306 359.164 835.602 355.02C836.194 350.58 836.638 345.696 836.934 340.368C837.526 334.744 838.118 328.676 838.71 322.164C839.302 315.652 839.894 309.288 840.486 303.072C841.67 287.976 843.15 271.696 844.926 254.232L847.59 215.604L840.93 216.048L830.718 254.232L803.19 365.676ZM902.476 488.22C911.356 445.596 919.792 404.304 927.784 364.344C930.744 347.176 933.852 329.416 937.108 311.064C940.66 292.712 943.916 274.656 946.876 256.896C949.836 238.84 952.5 221.672 954.868 205.392C957.236 188.816 959.012 173.868 960.196 160.548C964.044 160.844 967.3 160.992 969.964 160.992C972.628 160.992 975.736 160.992 979.288 160.992C983.432 160.992 988.464 160.992 994.384 160.992C1000.3 160.696 1006.22 160.4 1012.14 160.104C1018.06 159.808 1024.43 159.512 1031.24 159.216C1035.38 179.936 1039.08 199.916 1042.34 219.156C1045.59 236.028 1048.85 253.344 1052.1 271.104C1055.66 288.864 1058.76 303.96 1061.43 316.392C1062.61 310.472 1063.94 303.664 1065.42 295.968C1066.9 287.976 1068.53 279.688 1070.31 271.104C1072.08 262.52 1073.71 253.936 1075.19 245.352C1076.97 236.472 1078.74 227.74 1080.52 219.156C1084.66 199.916 1088.96 180.084 1093.4 159.66L1147.56 153C1137.5 198.288 1128.62 241.208 1120.92 281.76C1117.37 299.224 1113.82 316.984 1110.27 335.04C1107.01 352.8 1103.9 369.968 1100.94 386.544C1097.98 402.824 1095.47 418.068 1093.4 432.276C1091.32 446.188 1089.7 457.88 1088.51 467.352C1087.62 467.352 1084.07 468.092 1077.86 469.572C1071.94 470.756 1064.98 472.236 1056.99 474.012C1049.29 475.788 1041.45 477.564 1033.46 479.34C1025.76 481.116 1019.99 482.744 1016.14 484.224C1014.36 460.544 1012.44 438.048 1010.37 416.736C1009.48 407.56 1008.44 398.236 1007.26 388.764C1006.37 378.996 1005.34 369.672 1004.15 360.792C1002.97 351.912 1001.78 343.624 1000.6 335.928C999.416 328.232 998.232 321.572 997.048 315.948C996.16 321.572 994.976 328.084 993.496 335.484C992.016 342.884 990.536 350.728 989.056 359.016C987.576 367.304 986.096 376.036 984.616 385.212C983.136 394.092 981.508 402.676 979.732 410.964C975.884 430.796 971.74 451.516 967.3 473.124L902.476 488.22ZM1140.97 486.444C1147.78 453.884 1154.29 421.768 1160.51 390.096C1163.17 376.776 1165.83 362.864 1168.5 348.36C1171.16 333.856 1173.68 319.648 1176.05 305.736C1178.71 291.528 1180.93 277.912 1182.71 264.888C1184.78 251.568 1186.55 239.432 1188.03 228.48C1181.23 227.592 1174.27 227.296 1167.17 227.592C1160.36 227.888 1153.55 227 1146.74 224.928C1147.04 220.192 1147.19 214.716 1147.19 208.5C1147.19 202.284 1147.33 196.068 1147.63 189.852C1147.93 183.044 1148.22 175.792 1148.52 168.096C1156.21 168.688 1163.91 169.132 1171.61 169.428C1179.3 169.724 1187 169.872 1194.69 169.872C1209.79 169.872 1224.29 169.576 1238.21 168.984C1252.41 168.096 1265.44 167.208 1277.28 166.32C1289.41 165.136 1301.25 163.804 1312.8 162.324L1307.91 186.3C1306.43 193.108 1304.95 200.064 1303.47 207.168C1302.29 214.272 1301.11 220.34 1299.92 225.372C1293.41 227.148 1286.75 228.48 1279.94 229.368C1273.43 229.96 1266.92 230.848 1260.41 232.032C1258.33 242.096 1256.11 253.344 1253.75 265.776C1251.38 277.912 1249.01 290.64 1246.64 303.96C1244.57 316.984 1242.5 330.304 1240.43 343.92C1238.35 357.536 1236.28 370.56 1234.21 382.992C1229.47 412.296 1225.03 442.636 1220.89 474.012L1140.97 486.444Z" fill="url(#paint0_linear_15_15)"/>
<defs>
<linearGradient id="paint0_linear_15_15" x1="306.977" y1="566" x2="1013.01" y2="27.737" gradientUnits="userSpaceOnUse">
<stop offset="0.38768" stop-color="#DC0000"/>
<stop offset="1" stop-color="#FF7A00"/>
</linearGradient>
</defs>
</svg>
